<?xml version="1.0" standalone="no"?>
<!DOCTYPE svg PUBLIC "-//W3C//DTD SVG 20010904//EN"
 "http://www.w3.org/TR/2001/REC-SVG-20010904/DTD/svg10.dtd">
<svg version="1.0" xmlns="http://www.w3.org/2000/svg"
 width="271.000000pt" height="108.000000pt" viewBox="0 0 271.000000 108.000000"
 preserveAspectRatio="xMidYMid meet">

<g transform="translate(0.000000,108.000000) scale(0.100000,-0.100000)"
fill="#000000" stroke="none">
<path d="M489 925 c-111 -40 -191 -111 -241 -213 -58 -117 -48 -271 23 -384
73 -113 184 -179 317 -186 l82 -5 0 37 c0 27 4 36 16 36 9 0 43 12 76 26 l59
27 22 -21 23 -21 38 35 38 35 -22 24 -23 24 25 58 c14 32 28 66 31 76 4 11 17
17 37 17 30 0 30 0 30 55 l0 55 -35 0 c-27 0 -35 4 -35 18 0 9 -12 41 -25 71
l-26 54 23 24 22 23 -34 35 c-39 40 -50 43 -75 15 -16 -18 -19 -18 -49 -3 -17
9 -49 22 -71 28 -34 10 -40 16 -43 44 l-3 31 -72 -1 c-40 0 -88 -6 -108 -14z
m153 -36 c3 -29 8 -33 60 -49 31 -10 69 -27 84 -38 l28 -20 28 21 c27 20 29
20 45 4 16 -16 15 -18 -5 -40 l-22 -23 30 -59 c16 -33 32 -72 35 -87 4 -22 11
-27 38 -30 24 -2 33 -8 35 -25 3 -18 -2 -22 -30 -25 -30 -3 -34 -8 -53 -63
-11 -33 -29 -73 -39 -88 -18 -27 -18 -28 2 -50 20 -22 21 -24 5 -40 -16 -16
-18 -15 -39 4 l-22 21 -44 -25 c-23 -14 -64 -31 -90 -38 -43 -10 -48 -14 -48
-40 0 -24 -4 -29 -25 -29 l-25 0 0 130 0 129 34 16 c42 20 70 73 61 115 -9 39
-39 76 -70 84 l-25 6 0 135 0 135 24 0 c20 0 25 -6 28 -31z m-82 6 c0 -9 -6
-17 -12 -19 -166 -48 -269 -171 -271 -324 -1 -85 23 -158 74 -222 42 -53 122
-106 177 -116 23 -5 32 -12 32 -26 0 -17 -4 -19 -27 -13 -165 40 -281 178
-291 344 -7 126 31 217 127 304 72 64 191 109 191 72z m38 -277 c46 -12 73
-67 52 -106 -9 -15 -32 -35 -53 -45 l-37 -19 0 -104 c0 -86 -3 -104 -15 -104
-24 0 -98 38 -135 69 -29 24 -33 31 -22 44 15 17 2 30 -21 22 -31 -13 -76 146
-44 159 9 3 8 8 -4 18 -33 27 25 181 66 176 15 -2 19 2 18 19 -3 26 49 66 114
88 l38 13 5 -111 5 -111 33 -8z"/>
<path d="M547 575 c-10 -9 -41 -15 -93 -17 -51 -2 -79 -7 -82 -15 -3 -10 16
-13 72 -13 42 0 76 -4 76 -8 0 -4 -20 -28 -45 -52 -30 -29 -42 -47 -35 -54 7
-7 26 5 58 37 31 31 56 47 73 47 14 0 30 5 37 12 18 18 14 56 -7 68 -26 14
-37 13 -54 -5z m43 -30 c0 -8 -7 -15 -15 -15 -16 0 -20 12 -8 23 11 12 23 8
23 -8z"/>
<path d="M2030 814 c0 -126 0 -126 -22 -120 -136 40 -248 -3 -248 -93 0 -50
23 -79 87 -107 40 -18 54 -29 51 -42 -5 -25 -44 -27 -83 -3 l-34 20 -20 -32
-21 -32 0 148 0 147 -60 0 c-47 0 -60 -3 -60 -15 0 -12 -6 -12 -37 5 -61 32
-155 21 -192 -23 -19 -24 -31 -21 -31 8 0 22 -4 25 -35 25 l-35 0 0 65 0 65
-60 0 -60 0 0 -65 c0 -63 -1 -65 -25 -65 -23 0 -25 -4 -25 -45 0 -41 2 -45 25
-45 25 0 25 -1 25 -92 0 -75 4 -99 20 -126 30 -49 90 -65 157 -41 25 8 30 14
25 32 -5 21 -4 20 27 -5 54 -46 141 -49 195 -7 l26 20 0 -20 c0 -19 6 -21 60
-21 47 0 60 3 60 15 0 14 3 14 25 -1 33 -22 133 -30 180 -14 21 7 49 24 62 38
l23 25 0 -32 0 -31 60 0 60 0 0 67 0 67 68 -67 68 -67 79 0 80 0 -93 93 -92
92 82 83 83 82 -80 0 -81 0 -54 -55 -55 -56 -5 173 -5 173 -57 3 -58 3 0 -127z
m0 -223 l0 -89 -29 26 c-15 15 -51 35 -80 45 -77 27 -60 70 19 47 49 -14 48
-14 67 25 9 19 18 35 20 35 2 0 3 -40 3 -89z m-695 -61 c0 -75 -1 -81 -20 -78
-18 3 -20 12 -23 81 -3 74 -2 77 20 77 22 0 23 -3 23 -80z m256 51 c44 -44 33
-108 -21 -131 -55 -23 -110 14 -110 73 0 80 75 113 131 58z"/>
<path d="M1497 263 c-16 -15 -6 -44 19 -53 33 -13 21 -34 -15 -25 -19 5 -23 4
-15 -5 17 -17 58 -8 62 12 2 11 -6 22 -22 29 -33 15 -34 33 -1 27 28 -6 34 6
9 16 -20 8 -29 8 -37 -1z"/>
<path d="M1657 232 c-14 -22 1 -60 26 -65 l22 -4 -22 -2 c-13 0 -23 -5 -23
-11 0 -14 33 -13 48 2 15 15 16 74 2 83 -6 4 -10 -7 -10 -24 0 -43 -28 -42
-32 2 -2 22 -6 28 -11 19z"/>
<path d="M1827 234 c-10 -11 -8 -52 3 -59 6 -4 10 7 10 24 0 21 5 31 15 31 10
0 15 -10 15 -30 0 -16 5 -30 11 -30 6 0 9 14 7 33 -2 26 -8 33 -28 35 -14 2
-29 0 -33 -4z"/>
<path d="M1995 221 c-9 -28 5 -51 31 -51 13 0 24 4 24 9 0 5 -8 8 -17 7 -12
-1 -19 7 -21 23 -3 20 0 23 17 18 12 -3 21 -1 21 4 0 18 -49 9 -55 -10z"/>
</g>
</svg>
